<svg width="20" height="22" viewBox="0 0 20 22" fill="none" xmlns="http://www.w3.org/2000/svg">
<path d="M17.9461 5.889C17.9428 5.84664 17.9237 5.80707 17.8926 5.77816C17.8614 5.74925 17.8205 5.73313 17.7781 5.733H14.7431V4.89C14.7431 3.59309 14.2279 2.3493 13.3108 1.43225C12.3938 0.515195 11.15 0 9.85306 0C8.55616 0 7.31237 0.515195 6.39531 1.43225C5.47826 2.3493 4.96306 3.59309 4.96306 4.89V5.733H1.92706C1.88458 5.73313 1.8437 5.74925 1.81257 5.77816C1.78144 5.80707 1.76233 5.84664 1.75906 5.889L0.578063 21.4C0.576419 21.4231 0.579539 21.4463 0.58723 21.4681C0.594921 21.49 0.607019 21.51 0.622772 21.527C0.638525 21.5439 0.657597 21.5575 0.678806 21.5668C0.700015 21.5761 0.722907 21.5809 0.746063 21.581H18.9581C18.9812 21.5809 19.0041 21.5761 19.0253 21.5668C19.0465 21.5575 19.0656 21.5439 19.0814 21.527C19.0971 21.51 19.1092 21.49 19.1169 21.4681C19.1246 21.4463 19.1277 21.4231 19.1261 21.4L17.9461 5.889ZM6.31206 4.889C6.31206 3.94987 6.68513 3.0492 7.3492 2.38513C8.01326 1.72107 8.91393 1.348 9.85306 1.348C10.7922 1.348 11.6929 1.72107 12.3569 2.38513C13.021 3.0492 13.3941 3.94987 13.3941 4.889V5.732H6.31206V4.889ZM5.63806 10.454C5.19107 10.4535 4.76254 10.2757 4.44647 9.9596C4.1304 9.64353 3.95259 9.21499 3.95206 8.768C3.93918 8.43722 4.02973 8.11066 4.21112 7.83375C4.3925 7.55683 4.65569 7.34335 4.96407 7.223V8.768C4.96407 8.94689 5.03513 9.11845 5.16162 9.24494C5.28811 9.37144 5.45968 9.4425 5.63856 9.4425C5.81745 9.4425 5.98902 9.37144 6.11551 9.24494C6.242 9.11845 6.31306 8.94689 6.31306 8.768V7.224C6.62058 7.34529 6.88299 7.55885 7.0642 7.83533C7.24542 8.1118 7.33655 8.43762 7.32507 8.768C7.3248 9.21551 7.14684 9.6446 6.83031 9.96095C6.51377 10.2773 6.08457 10.455 5.63706 10.455L5.63806 10.454ZM14.0691 10.454C13.8473 10.4544 13.6276 10.4111 13.4226 10.3266C13.2176 10.242 13.0313 10.1179 12.8742 9.96136C12.7172 9.80479 12.5926 9.61881 12.5074 9.41405C12.4223 9.20929 12.3783 8.98976 12.3781 8.768C12.3652 8.43722 12.4557 8.11066 12.6371 7.83375C12.8185 7.55683 13.0817 7.34335 13.3901 7.223V8.768C13.3901 8.94689 13.4611 9.11845 13.5876 9.24494C13.7141 9.37144 13.8857 9.4425 14.0646 9.4425C14.2435 9.4425 14.415 9.37144 14.5415 9.24494C14.668 9.11845 14.7391 8.94689 14.7391 8.768V7.224C15.0466 7.34529 15.309 7.55885 15.4902 7.83533C15.6714 8.1118 15.7625 8.43762 15.7511 8.768C15.7508 9.21465 15.5735 9.64298 15.2581 9.95919C14.9426 10.2754 14.5147 10.4537 14.0681 10.455L14.0691 10.454Z" fill="#4A4B4D"/>
</svg>
