<svg width="31" height="30" viewBox="0 0 31 30" fill="none" xmlns="http://www.w3.org/2000/svg">
<path d="M30.0404 13.1527L16.3674 0.689729C16.0802 0.425778 15.7044 0.279297 15.3144 0.279297C14.9244 0.279297 14.5485 0.425778 14.2614 0.689729L0.579394 13.1527C0.346056 13.3651 0.182438 13.643 0.110054 13.9501C0.0376698 14.2572 0.0599074 14.579 0.173843 14.8732C0.287779 15.1674 0.488079 15.4202 0.748407 15.5984C1.00873 15.7767 1.3169 15.8719 1.63239 15.8717H3.81639V28.3587C3.81639 28.5974 3.91121 28.8263 4.08 28.9951C4.24878 29.1639 4.4777 29.2587 4.71639 29.2587H12.2164C12.4551 29.2587 12.684 29.1639 12.8528 28.9951C13.0216 28.8263 13.1164 28.5974 13.1164 28.3587V20.7767H17.5224V28.3587C17.5224 28.5974 17.6172 28.8263 17.786 28.9951C17.9548 29.1639 18.1837 29.2587 18.4224 29.2587H25.9224C26.1611 29.2587 26.39 29.1639 26.5588 28.9951C26.7276 28.8263 26.8224 28.5974 26.8224 28.3587V15.8717H29.0074C29.3229 15.8719 29.6311 15.7767 29.8914 15.5984C30.1517 15.4202 30.352 15.1674 30.4659 14.8732C30.5799 14.579 30.6021 14.2572 30.5297 13.9501C30.4573 13.643 30.2937 13.3651 30.0604 13.1527H30.0404Z" fill="white"/>
<path d="M26.5698 2.06787H20.5488L27.4659 8.35787V2.96387C27.4648 2.72656 27.37 2.49927 27.2022 2.33147C27.0344 2.16366 26.8071 2.06892 26.5698 2.06787Z" fill="white"/>
</svg>
