<svg width="30" height="30" viewBox="0 0 30 30" fill="none" xmlns="http://www.w3.org/2000/svg">
<path d="M18.034 14.648C19.4825 14.648 20.8985 14.2185 22.103 13.4137C23.3074 12.6089 24.2461 11.4651 24.8005 10.1268C25.3548 8.78849 25.4998 7.31588 25.2172 5.89516C24.9346 4.47444 24.2371 3.16943 23.2128 2.14515C22.1885 1.12087 20.8835 0.42333 19.4628 0.140732C18.0421 -0.141866 16.5695 0.00317335 15.2312 0.55751C13.8929 1.11185 12.7491 2.05058 11.9443 3.25501C11.1395 4.45943 10.71 5.87545 10.71 7.324C10.7121 9.2658 11.4844 11.1275 12.8575 12.5005C14.2305 13.8736 16.0922 14.6459 18.034 14.648ZM17.167 3.019V2.819C17.167 2.58893 17.2584 2.36828 17.4211 2.20559C17.5837 2.0429 17.8044 1.9515 18.0345 1.9515C18.2645 1.9515 18.4852 2.0429 18.6479 2.20559C18.8106 2.36828 18.902 2.58893 18.902 2.819V3.019C19.4136 3.12967 19.872 3.41198 20.201 3.81908C20.5301 4.22617 20.71 4.73355 20.711 5.257C20.711 5.37092 20.6885 5.48373 20.6449 5.58898C20.6013 5.69423 20.5374 5.78986 20.4569 5.87042C20.3763 5.95097 20.2807 6.01487 20.1754 6.05847C20.0702 6.10206 19.9574 6.1245 19.8435 6.1245C19.7296 6.1245 19.6167 6.10206 19.5115 6.05847C19.4062 6.01487 19.3106 5.95097 19.2301 5.87042C19.1495 5.78986 19.0856 5.69423 19.042 5.58898C18.9984 5.48373 18.976 5.37092 18.976 5.257C18.9757 5.10989 18.9172 4.96888 18.8131 4.86485C18.7091 4.76083 18.5681 4.70227 18.421 4.702H17.643C17.5265 4.70235 17.4131 4.73934 17.3188 4.80774C17.2245 4.87613 17.1541 4.97246 17.1176 5.08308C17.0811 5.1937 17.0803 5.31299 17.1154 5.42408C17.1504 5.53516 17.2196 5.63239 17.313 5.702L18.035 6.236L19.788 7.536C20.0729 7.74799 20.3049 8.02307 20.4657 8.33969C20.6265 8.65632 20.7118 9.00589 20.715 9.361V9.37C20.7185 9.89724 20.5401 10.4096 20.2098 10.8205C19.8795 11.2315 19.4176 11.516 18.902 11.626V11.826C18.902 12.0561 18.8106 12.2767 18.6479 12.4394C18.4852 12.6021 18.2645 12.6935 18.0345 12.6935C17.8044 12.6935 17.5837 12.6021 17.4211 12.4394C17.2584 12.2767 17.167 12.0561 17.167 11.826V11.626C16.6576 11.5159 16.201 11.2352 15.8726 10.8305C15.5442 10.4258 15.3638 9.92117 15.361 9.4C15.3602 9.28606 15.3819 9.17308 15.4248 9.06753C15.4677 8.96197 15.531 8.86591 15.611 8.78483C15.6911 8.70375 15.7863 8.63924 15.8913 8.595C15.9963 8.55077 16.109 8.52766 16.223 8.527H16.229C16.458 8.52726 16.6776 8.618 16.84 8.77946C17.0024 8.94092 17.0944 9.16001 17.096 9.389C17.0962 9.46192 17.1109 9.53408 17.1391 9.60132C17.1673 9.66857 17.2085 9.72958 17.2603 9.78087C17.3122 9.83215 17.3736 9.87269 17.4412 9.90018C17.5087 9.92766 17.581 9.94153 17.654 9.941H18.431C18.5039 9.94061 18.5761 9.92583 18.6434 9.89752C18.7106 9.8692 18.7716 9.8279 18.8229 9.77598C18.8742 9.72405 18.9147 9.66253 18.9422 9.59493C18.9696 9.52733 18.9835 9.45497 18.983 9.382V9.373C18.9822 9.28695 18.9614 9.20227 18.9224 9.12558C18.8833 9.04889 18.8271 8.98229 18.758 8.931L18.037 8.397L16.283 7.097C15.9287 6.83462 15.6577 6.47555 15.5025 6.06292C15.3473 5.65028 15.3145 5.20163 15.4081 4.77082C15.5016 4.34001 15.7176 3.94536 16.0299 3.63426C16.3423 3.32315 16.7378 3.10882 17.169 3.017L17.167 3.019Z" fill="#4A4B4D"/>
<path d="M6.16701 18.8162C6.06059 18.6309 5.8851 18.4953 5.67895 18.4391C5.4728 18.3829 5.25277 18.4106 5.06701 18.5162L0.98701 20.8712C0.801917 20.9778 0.666497 21.1533 0.610295 21.3594C0.554093 21.5655 0.58167 21.7854 0.68701 21.9712L4.85701 29.1942C4.96362 29.3793 5.13911 29.5147 5.34518 29.571C5.55125 29.6272 5.77119 29.5996 5.95701 29.4942L10.037 27.1382C10.2223 27.0318 10.3579 26.8563 10.4141 26.6502C10.4703 26.444 10.4426 26.224 10.337 26.0382L6.16701 18.8162Z" fill="#4A4B4D"/>
<path d="M29.546 17.376C29.4527 17.246 29.3347 17.1356 29.1987 17.0513C29.0627 16.967 28.9113 16.9104 28.7534 16.8848C28.5954 16.8592 28.4339 16.865 28.2782 16.9019C28.1225 16.9388 27.9756 17.0062 27.846 17.1L22.768 20.759C22.6531 20.8573 22.5311 20.9469 22.403 21.027C21.8992 21.3435 21.316 21.5106 20.721 21.509H16.566C16.3359 21.509 16.1153 21.4176 15.9526 21.2549C15.7899 21.0923 15.6985 20.8716 15.6985 20.6415C15.6985 20.4115 15.7899 20.1908 15.9526 20.0281C16.1153 19.8654 16.3359 19.774 16.566 19.774H21.009C21.1642 19.7739 21.3177 19.7424 21.4603 19.6814C21.603 19.6204 21.7318 19.5311 21.8391 19.419C21.9463 19.3069 22.0298 19.1742 22.0844 19.029C22.1391 18.8838 22.1638 18.729 22.157 18.574C22.1391 18.276 22.0078 17.9962 21.79 17.792C21.5722 17.5878 21.2845 17.4747 20.986 17.476H17.604C17.3745 17.2332 17.1239 17.0113 16.855 16.813C15.8995 16.1074 14.7428 15.7271 13.555 15.728C12.4642 15.7464 11.3981 16.0559 10.4671 16.6247C9.53614 17.1935 8.77415 18.0008 8.26001 18.963L11.808 25.108H18.464C19.7712 25.1111 21.0563 24.7711 22.191 24.122C22.6277 23.869 23.0512 23.594 23.46 23.298C25.369 21.926 29.273 19.077 29.276 19.075C29.4053 18.9813 29.5149 18.8629 29.5985 18.7267C29.6821 18.5906 29.738 18.4393 29.7631 18.2815C29.7881 18.1237 29.7819 17.9625 29.7446 17.8072C29.7074 17.6518 29.6399 17.5053 29.546 17.376Z" fill="#4A4B4D"/>
</svg>
