<svg width="13" height="26" viewBox="0 0 13 26" fill="none" xmlns="http://www.w3.org/2000/svg">
<path d="M11.67 23.0848L11.308 24.5628C10.2233 24.9908 9.35667 25.3168 8.708 25.5408C7.9814 25.7781 7.22021 25.892 6.456 25.8778C5.35157 25.945 4.26113 25.6028 3.393 24.9168C3.04065 24.6169 2.75969 24.2422 2.5706 23.8199C2.38151 23.3976 2.28906 22.9384 2.3 22.4758C2.30026 22.0831 2.32733 21.6909 2.381 21.3018C2.43633 20.9018 2.52433 20.4498 2.645 19.9458L4.001 15.1458C4.12167 14.6865 4.22333 14.2512 4.306 13.8398C4.3843 13.4702 4.4255 13.0937 4.429 12.7158C4.45352 12.4877 4.43266 12.257 4.36761 12.037C4.30256 11.8169 4.19462 11.612 4.05 11.4338C3.62576 11.1431 3.11111 11.0146 2.6 11.0718C2.2346 11.0747 1.87153 11.1303 1.522 11.2368C1.153 11.3458 0.837998 11.4508 0.572998 11.5488L0.939999 10.0698C1.828 9.7085 2.67766 9.39917 3.489 9.14184C4.23128 8.89562 5.00702 8.76509 5.789 8.75484C6.87731 8.68401 7.95297 9.02129 8.806 9.70084C9.15274 10.0068 9.42756 10.3856 9.61081 10.8102C9.79405 11.2348 9.8812 11.6946 9.866 12.1568C9.866 12.3648 9.843 12.7328 9.793 13.2568C9.7509 13.747 9.65978 14.2318 9.521 14.7038L8.171 19.4828C8.04773 19.9159 7.94759 20.3552 7.871 20.7988C7.79612 21.1669 7.75197 21.5405 7.739 21.9158C7.70999 22.1504 7.73304 22.3886 7.80649 22.6132C7.87995 22.8379 8.00201 23.0437 8.164 23.2158C8.60609 23.4875 9.12432 23.6085 9.641 23.5608C10.019 23.5529 10.3943 23.4947 10.757 23.3878C11.0687 23.3105 11.3739 23.2092 11.67 23.0848ZM12.012 3.02184C12.0165 3.42349 11.9345 3.82142 11.7716 4.18859C11.6088 4.55577 11.3688 4.8836 11.068 5.14984C10.455 5.73038 9.63814 6.04648 8.794 6.02984C7.94673 6.04562 7.12681 5.72985 6.509 5.14984C6.20606 4.88486 5.96404 4.55748 5.79954 4.19016C5.63504 3.82285 5.55196 3.42429 5.556 3.02184C5.5528 2.61849 5.63622 2.21916 5.80063 1.85084C5.96504 1.48251 6.20661 1.15377 6.509 0.886837C7.13111 0.316436 7.94447 0 8.7885 0C9.63253 0 10.4459 0.316436 11.068 0.886837C11.3687 1.15471 11.6086 1.48382 11.7716 1.85206C11.9346 2.2203 12.0169 2.61915 12.013 3.02184H12.012Z" fill="#4A4B4D"/>
</svg>
