<svg width="14" height="15" viewBox="0 0 14 15" fill="none" xmlns="http://www.w3.org/2000/svg">
<path d="M5 0.5H1C0.447715 0.5 0 0.947715 0 1.5V5.5C0 6.05228 0.447715 6.5 1 6.5H5C5.55228 6.5 6 6.05228 6 5.5V1.5C6 0.947715 5.55228 0.5 5 0.5Z" fill="#FC6011"/>
<path d="M5 8.5H1C0.447715 8.5 0 8.94772 0 9.5V13.5C0 14.0523 0.447715 14.5 1 14.5H5C5.55228 14.5 6 14.0523 6 13.5V9.5C6 8.94772 5.55228 8.5 5 8.5Z" fill="#FC6011"/>
<path d="M13 0.5H9C8.44772 0.5 8 0.947715 8 1.5V5.5C8 6.05228 8.44772 6.5 9 6.5H13C13.5523 6.5 14 6.05228 14 5.5V1.5C14 0.947715 13.5523 0.5 13 0.5Z" fill="#FC6011"/>
<path d="M13 8.5H9C8.44772 8.5 8 8.94772 8 9.5V13.5C8 14.0523 8.44772 14.5 9 14.5H13C13.5523 14.5 14 14.0523 14 13.5V9.5C14 8.94772 13.5523 8.5 13 8.5Z" fill="#FC6011"/>
</svg>
