<svg width="16" height="17" viewBox="0 0 16 17" fill="none" xmlns="http://www.w3.org/2000/svg">
<path d="M14.931 0.5H0.771027C0.566279 0.5 0.369906 0.581336 0.225128 0.726114C0.0803501 0.870892 -0.000976562 1.06725 -0.000976562 1.272V1.984C-0.000976562 2.18875 0.0803501 2.38511 0.225128 2.52989C0.369906 2.67466 0.566279 2.756 0.771027 2.756H14.931C15.1359 2.756 15.3323 2.6747 15.4773 2.52995C15.6222 2.3852 15.7038 2.18884 15.704 1.984V1.273C15.7038 1.06816 15.6222 0.871802 15.4773 0.727053C15.3323 0.582303 15.1359 0.501 14.931 0.501V0.5Z" fill="#B6B7B7"/>
<path d="M14.931 14.0479H0.771027C0.66961 14.0477 0.569157 14.0676 0.475434 14.1063C0.381711 14.1451 0.296567 14.202 0.224854 14.2737C0.153141 14.3454 0.0962763 14.4305 0.0575263 14.5243C0.0187763 14.618 -0.00110754 14.7184 -0.000975913 14.8199V15.5329C-0.000975913 15.7376 0.0803507 15.934 0.225129 16.0787C0.369907 16.2235 0.56628 16.3049 0.771027 16.3049H14.931C15.1359 16.3049 15.3323 16.2235 15.4773 16.0788C15.6222 15.934 15.7038 15.7377 15.704 15.5329V14.8219C15.7038 14.617 15.6222 14.4207 15.4773 14.2759C15.3323 14.1312 15.1359 14.0499 14.931 14.0499V14.0479Z" fill="#B6B7B7"/>
<path d="M15.7083 10.3042C15.708 10.0994 15.6265 9.90303 15.4815 9.75828C15.3366 9.61353 15.1401 9.53223 14.9353 9.53223H6.13531C5.93048 9.53223 5.73402 9.61353 5.58908 9.75828C5.44414 9.90303 5.36257 10.0994 5.3623 10.3042V11.0162C5.3623 11.1177 5.38231 11.2182 5.42117 11.3119C5.46003 11.4056 5.51698 11.4908 5.58878 11.5625C5.66057 11.6342 5.74579 11.691 5.83957 11.7297C5.93335 11.7685 6.03385 11.7884 6.13531 11.7882H14.9353C15.1401 11.7882 15.3366 11.7069 15.4815 11.5622C15.6265 11.4174 15.708 11.2211 15.7083 11.0162V10.3042Z" fill="#B6B7B7"/>
<path d="M15.7083 5.81301C15.7081 5.60818 15.6265 5.41182 15.4816 5.26707C15.3366 5.12232 15.1402 5.04102 14.9353 5.04102H6.13533C5.93049 5.04102 5.73403 5.12232 5.58909 5.26707C5.44416 5.41182 5.36258 5.60818 5.36232 5.81301V6.52502C5.36171 6.62796 5.38176 6.72997 5.42131 6.82502C5.47972 6.96628 5.57877 7.08703 5.70589 7.17194C5.833 7.25686 5.98246 7.30213 6.13533 7.30202H14.9353C15.1402 7.30202 15.3366 7.22071 15.4816 7.07596C15.6265 6.93121 15.7081 6.73485 15.7083 6.53001V5.81301Z" fill="#B6B7B7"/>
<path d="M0.129022 10.1858C0.14618 10.1858 0.163151 10.1824 0.17901 10.1758C0.194788 10.169 0.209086 10.1592 0.221032 10.1468L3.03802 8.52083V8.51583C3.05779 8.50499 3.07435 8.48912 3.08602 8.46983C3.09704 8.45023 3.10322 8.42829 3.10403 8.40583C3.1032 8.38093 3.09559 8.35673 3.08202 8.33583C3.06864 8.31516 3.04953 8.29883 3.02703 8.28883L0.222009 6.66883C0.204022 6.65154 0.181469 6.63974 0.157006 6.63483C0.132517 6.62987 0.107109 6.63231 0.0840084 6.64183C0.0607453 6.65096 0.040872 6.66702 0.027032 6.68783C0.0123676 6.70832 0.00400692 6.73265 0.00301471 6.75783V10.0578C0.00236542 10.0746 0.00544148 10.0914 0.0120174 10.1068C0.021932 10.1304 0.0386237 10.1505 0.059991 10.1646C0.0813583 10.1786 0.106431 10.186 0.132013 10.1858H0.129022Z" fill="#B6B7B7"/>
</svg>
