<svg width="19" height="23" viewBox="0 0 19 23" fill="none" xmlns="http://www.w3.org/2000/svg">
<path d="M6.34607 20.3491C6.61026 20.9491 7.0433 21.4593 7.59241 21.8175C8.14151 22.1757 8.78296 22.3665 9.43857 22.3665C10.0942 22.3665 10.7356 22.1757 11.2847 21.8175C11.8338 21.4593 12.2669 20.9491 12.5311 20.3491H6.34607Z" fill="#4A4B4D"/>
<path d="M9.44302 2.137C10.3296 2.13586 11.2095 2.28985 12.043 2.592V2.492C12.0428 2.1644 11.978 1.84006 11.8523 1.53751C11.7267 1.23496 11.5427 0.960126 11.3108 0.728709C11.0789 0.497292 10.8037 0.313827 10.5009 0.188793C10.1981 0.0637597 9.87364 -0.000392367 9.54604 1.80546e-06H9.34003C8.67927 0.000531471 8.04573 0.263251 7.57851 0.730477C7.11128 1.1977 6.84855 1.83125 6.84802 2.492V2.592C7.68002 2.29072 8.55816 2.13675 9.44302 2.137Z" fill="#4A4B4D"/>
<path d="M17.6331 19.037H1.25306C1.10158 19.0389 0.953941 18.9893 0.834377 18.8963C0.714814 18.8032 0.630426 18.6723 0.595059 18.525C0.561086 18.3822 0.577463 18.2321 0.641419 18.1C0.705375 17.9679 0.812987 17.8619 0.94606 17.8C1.4179 17.421 1.7826 16.9253 2.00406 16.362C2.81115 14.2672 3.18535 12.0305 3.10406 9.78701C3.10242 8.95482 3.2647 8.13047 3.58165 7.361C3.8986 6.59153 4.364 5.89202 4.95129 5.30241C6.13736 4.11165 7.74788 3.44083 9.42856 3.43751C11.1092 3.4342 12.7224 4.09866 13.9132 5.28473C14.5028 5.87202 14.9709 6.56968 15.2909 7.3379C15.6109 8.10611 15.7764 8.92983 15.7781 9.76201C15.7781 9.77001 15.7781 9.77901 15.7781 9.78701C15.6968 12.0305 16.071 14.2672 16.8781 16.362C17.0995 16.9253 17.4642 17.421 17.9361 17.8C18.069 17.8621 18.1763 17.9681 18.2401 18.1002C18.3039 18.2323 18.3201 18.3823 18.2861 18.525C18.2509 18.6715 18.1672 18.8018 18.0487 18.8947C17.9302 18.9876 17.7837 19.0378 17.6331 19.037Z" fill="#4A4B4D"/>
</svg>
