<svg width="18" height="17" viewBox="0 0 18 17" fill="none" xmlns="http://www.w3.org/2000/svg">
<path d="M17.214 15.7771L16.041 5.29309C16.028 5.17703 15.9727 5.06982 15.8856 4.99197C15.7985 4.91413 15.6858 4.8711 15.569 4.87109H2.64604C2.52924 4.8711 2.41654 4.91413 2.32947 4.99197C2.24241 5.06982 2.18707 5.17703 2.17404 5.29309L1.00004 15.7771C0.992578 15.8435 0.999224 15.9108 1.01954 15.9745C1.03986 16.0381 1.07339 16.0968 1.11794 16.1467C1.16249 16.1965 1.21706 16.2364 1.27808 16.2637C1.3391 16.291 1.40519 16.3051 1.47204 16.3051H16.742C16.8089 16.3051 16.875 16.291 16.936 16.2637C16.997 16.2364 17.0516 16.1965 17.0961 16.1467C17.1407 16.0968 17.1742 16.0381 17.1945 15.9745C17.2148 15.9108 17.2215 15.8435 17.214 15.7771Z" fill="#B6B7B7"/>
<path d="M17.2154 15.7771L16.0434 5.29309C16.0304 5.17703 15.975 5.06982 15.888 4.99197C15.8009 4.91413 15.6882 4.8711 15.5714 4.87109H9.1084V16.3051H16.7414C16.8082 16.3051 16.8743 16.291 16.9354 16.2637C16.9964 16.2364 17.0509 16.1965 17.0955 16.1467C17.14 16.0968 17.1736 16.0381 17.1939 15.9745C17.2142 15.9108 17.2209 15.8435 17.2134 15.7771H17.2154Z" fill="#B6B7B7"/>
<path d="M6.05156 8.30674C6.57623 8.30674 7.00156 7.88141 7.00156 7.35674C7.00156 6.83207 6.57623 6.40674 6.05156 6.40674C5.52689 6.40674 5.10156 6.83207 5.10156 7.35674C5.10156 7.88141 5.52689 8.30674 6.05156 8.30674Z" fill="#B6B7B7"/>
<path d="M12.1648 8.30674C12.6895 8.30674 13.1148 7.88141 13.1148 7.35674C13.1148 6.83207 12.6895 6.40674 12.1648 6.40674C11.6402 6.40674 11.2148 6.83207 11.2148 7.35674C11.2148 7.88141 11.6402 8.30674 12.1648 8.30674Z" fill="#B6B7B7"/>
<path d="M12.1647 7.67386C12.0387 7.67386 11.9179 7.62381 11.8288 7.53473C11.7397 7.44565 11.6897 7.32484 11.6897 7.19886V4.03186C11.6897 3.3472 11.4177 2.69059 10.9336 2.20646C10.4494 1.72234 9.79282 1.45036 9.10817 1.45036C8.42351 1.45036 7.7669 1.72234 7.28277 2.20646C6.79865 2.69059 6.52667 3.3472 6.52667 4.03186V7.19886C6.52667 7.26124 6.51438 7.323 6.49051 7.38063C6.46663 7.43826 6.43165 7.49063 6.38754 7.53473C6.34343 7.57884 6.29107 7.61383 6.23344 7.6377C6.17581 7.66157 6.11404 7.67386 6.05166 7.67386C5.98928 7.67386 5.92751 7.66157 5.86988 7.6377C5.81226 7.61383 5.75989 7.57884 5.71579 7.53473C5.67168 7.49063 5.63669 7.43826 5.61282 7.38063C5.58895 7.323 5.57667 7.26124 5.57667 7.19886V4.03186C5.56878 3.56309 5.6543 3.09745 5.82823 2.66208C6.00216 2.22671 6.26102 1.83032 6.58973 1.49603C6.91845 1.16174 7.31043 0.896236 7.74281 0.715002C8.17519 0.533768 8.63934 0.44043 9.10817 0.44043C9.577 0.44043 10.0411 0.533768 10.4735 0.715002C10.9059 0.896236 11.2979 1.16174 11.6266 1.49603C11.9553 1.83032 12.2142 2.22671 12.3881 2.66208C12.562 3.09745 12.6475 3.56309 12.6397 4.03186V7.19886C12.6397 7.26124 12.6274 7.323 12.6035 7.38063C12.5796 7.43826 12.5447 7.49063 12.5005 7.53473C12.4564 7.57884 12.4041 7.61383 12.3464 7.6377C12.2888 7.66157 12.227 7.67386 12.1647 7.67386Z" fill="#B6B7B7"/>
<path d="M9.1084 0.499023V1.44902C9.79268 1.44982 10.4487 1.722 10.9326 2.20586C11.4164 2.68972 11.6886 3.34574 11.6894 4.03002V7.19902C11.6894 7.325 11.7394 7.44582 11.8285 7.5349C11.9176 7.62398 12.0384 7.67402 12.1644 7.67402C12.2904 7.67402 12.4112 7.62398 12.5003 7.5349C12.5894 7.44582 12.6394 7.325 12.6394 7.19902V4.03202C12.6386 3.0956 12.2664 2.19774 11.6044 1.5354C10.9425 0.873062 10.0448 0.500347 9.1084 0.499023Z" fill="#B6B7B7"/>
</svg>
