<svg width="15" height="18" viewBox="0 0 15 18" fill="none" xmlns="http://www.w3.org/2000/svg">
<path d="M7.60254 8.99C9.53254 8.99 11.1025 7.09 11.1025 4.745C11.1025 2.4 10.5835 0.5 7.60254 0.5C4.62154 0.5 4.10254 2.4 4.10254 4.745C4.10254 7.09 5.67254 8.99 7.60254 8.99Z" fill="#B6B7B7"/>
<path d="M14.1931 15.3009C14.1281 11.2169 13.5931 10.0529 9.51307 9.31592C8.9871 9.78754 8.30552 10.0484 7.59907 10.0484C6.89262 10.0484 6.21104 9.78754 5.68507 9.31592C1.64807 10.0449 1.08507 11.1909 1.00707 15.1679C1.00107 15.4929 0.99807 15.5099 0.99707 15.4679C0.99707 15.5389 0.99707 15.6679 0.99707 15.8969C0.99707 15.8969 1.96907 17.8559 7.59707 17.8559C13.2251 17.8559 14.1971 15.8969 14.1971 15.8969C14.1971 15.7509 14.1971 15.6489 14.1971 15.5799C14.1908 15.487 14.1895 15.3939 14.1931 15.3009Z" fill="#B6B7B7"/>
</svg>
