<svg width="23" height="20" viewBox="0 0 23 20" fill="none" xmlns="http://www.w3.org/2000/svg">
<path d="M7.37806 13.333H19.4221C19.5671 13.3332 19.7082 13.2861 19.8239 13.1987C19.9396 13.1113 20.0236 12.9885 20.0631 12.849L22.7301 3.516C22.7586 3.41677 22.7636 3.31226 22.7448 3.21073C22.726 3.1092 22.6839 3.01344 22.6217 2.931C22.5596 2.84856 22.4791 2.7817 22.3866 2.73571C22.2942 2.68972 22.1923 2.66586 22.0891 2.666H5.83906L5.36206 0.522C5.32908 0.373931 5.24661 0.241526 5.12826 0.146629C5.00992 0.0517314 4.86275 1.10044e-05 4.71106 0L0.667057 0C0.494758 0.00667521 0.331738 0.079816 0.212196 0.204079C0.0926539 0.328342 0.0258789 0.494071 0.0258789 0.6665C0.0258789 0.838929 0.0926539 1.00466 0.212196 1.12892C0.331738 1.25318 0.494758 1.32632 0.667057 1.333H4.17606L6.58306 12.167C6.16234 12.3506 5.8176 12.6734 5.6067 13.0811C5.3958 13.4888 5.33156 13.9567 5.42479 14.4062C5.51802 14.8557 5.76302 15.2594 6.11868 15.5496C6.47435 15.8398 6.91902 15.9988 7.37806 16H19.4221C19.5944 15.9933 19.7574 15.9202 19.8769 15.7959C19.9965 15.6717 20.0632 15.5059 20.0632 15.3335C20.0632 15.1611 19.9965 14.9953 19.8769 14.8711C19.7574 14.7468 19.5944 14.6737 19.4221 14.667H7.37806C7.28836 14.6705 7.19888 14.6558 7.11499 14.6239C7.03109 14.592 6.95451 14.5434 6.88981 14.4812C6.82512 14.419 6.77366 14.3443 6.73851 14.2617C6.70335 14.1791 6.68524 14.0903 6.68524 14.0005C6.68524 13.9107 6.70335 13.8219 6.73851 13.7393C6.77366 13.6567 6.82512 13.5821 6.88981 13.5198C6.95451 13.4576 7.03109 13.409 7.11499 13.3771C7.19888 13.3452 7.28836 13.3305 7.37806 13.334V13.333Z" fill="#4A4B4D"/>
<path d="M6.71106 17.9961C6.71106 18.3917 6.82836 18.7783 7.04813 19.1072C7.26789 19.4361 7.58024 19.6925 7.94569 19.8438C8.31115 19.9952 8.71328 20.0348 9.10124 19.9577C9.4892 19.8805 9.84557 19.69 10.1253 19.4103C10.405 19.1306 10.5955 18.7742 10.6726 18.3863C10.7498 17.9983 10.7102 17.5962 10.5588 17.2307C10.4074 16.8653 10.1511 16.5529 9.8222 16.3332C9.49331 16.1134 9.10662 15.9961 8.71106 15.9961C8.18063 15.9961 7.67192 16.2068 7.29684 16.5819C6.92177 16.957 6.71106 17.4657 6.71106 17.9961Z" fill="#4A4B4D"/>
<path d="M16.0851 17.9961C16.0851 18.3917 16.2024 18.7783 16.4221 19.1072C16.6419 19.4361 16.9542 19.6925 17.3197 19.8438C17.6852 19.9952 18.0873 20.0348 18.4753 19.9577C18.8632 19.8805 19.2196 19.69 19.4993 19.4103C19.779 19.1306 19.9695 18.7742 20.0467 18.3863C20.1238 17.9983 20.0842 17.5962 19.9328 17.2307C19.7815 16.8653 19.5251 16.5529 19.1962 16.3332C18.8673 16.1134 18.4806 15.9961 18.0851 15.9961C17.5547 15.9961 17.0459 16.2068 16.6709 16.5819C16.2958 16.957 16.0851 17.4657 16.0851 17.9961Z" fill="#4A4B4D"/>
</svg>
